# xmcd
#
# Track frame offsets:
#	150
#	15975
#	30795
#	44780
#	62242
#	74572
#	90915
#	106605
#	118955
#	131205
#	147195
#	162440
#
# Disc length: 2403
#
# Revision: 4
# Processed by: cddbd v1.5.1PL0 Copyright (c) Steve Scherf et al.
# Submitted via: ExactAudioCopy v0.90b4
# Normalized: r2:DSETVAR1,TSWAP
#
DISCID=a209610c
DTITLE=Various Artist - 90's Country #1 Hits - Just The Hits
DYEAR=2000
DGENRE=Country
TTITLE0=Clint Black - The Shoes You're Wearing
TTITLE1=George Strait - Meet Me In The Middle
TTITLE2=George Strait - Love Without End, Amen
TTITLE3=Reba Mcentire - Forever Love
TTITLE4=Alan Jackson - Dallas
TTITLE5=Alabama - Jukebox In My Mind
TTITLE6=Toby Keith - Should've Been A Cowboy
TTITLE7=Lorrie Morgan - What Part of No
TTITLE8=Mark Chesnutt - It's A Little Too Late
TTITLE9=Terri Clark - Your Easy On The Eyes
TTITLE10=Brooks and Dunn - She's Not The Cheatin' Kind
TTITLE11=Vince Gill - I Still Believe In You
EXTD=
EXTT0=
EXTT1=
EXTT2=
EXTT3=
EXTT4=
EXTT5=
EXTT6=
EXTT7=
EXTT8=
EXTT9=
EXTT10=
EXTT11=
PLAYORDER=
